<?xml version="1.0" standalone="no"?>
<!DOCTYPE svg PUBLIC "-//W3C//DTD SVG 20010904//EN"
 "http://www.w3.org/TR/2001/REC-SVG-20010904/DTD/svg10.dtd">
<svg version="1.0" xmlns="http://www.w3.org/2000/svg"
 width="570.000000pt" height="570.000000pt" viewBox="0 0 570.000000 570.000000"
 preserveAspectRatio="xMidYMid meet">
<metadata>
Created by potrace 1.14, written by Peter Selinger 2001-2017
</metadata>
<g transform="translate(0.000000,570.000000) scale(0.100000,-0.100000)"
fill="#000000" stroke="none">
<path d="M2789 5689 c-100 -15 -114 -28 -745 -658 -333 -332 -607 -608 -610
-613 -7 -11 186 -202 265 -262 172 -133 354 -230 561 -301 52 -17 97 -32 100
-33 3 0 12 -3 20 -6 15 -5 133 -29 200 -41 87 -15 334 -25 418 -17 37 4 44 8
57 38 19 45 77 123 93 124 6 0 12 4 12 9 0 5 23 19 52 31 99 42 227 14 303
-68 17 -17 28 -23 33 -16 4 6 19 14 35 18 61 15 220 100 357 191 117 78 142
98 248 204 l85 83 -634 633 c-646 646 -670 667 -757 681 -20 3 -39 7 -42 8 -3
1 -26 -1 -51 -5z"/>
<path d="M1253 4168 c-12 -13 -70 -71 -130 -130 -60 -60 -107 -108 -104 -108
3 0 -1 -4 -9 -10 -27 -17 -157 -150 -152 -155 3 -3 1 -5 -5 -5 -14 0 -113
-102 -113 -115 0 -14 188 -200 272 -270 12 -10 110 -89 148 -119 8 -6 32 -22
53 -35 21 -12 43 -28 50 -35 6 -6 29 -20 50 -31 20 -11 37 -23 37 -27 0 -5 6
-8 14 -8 7 0 24 -8 37 -19 30 -23 151 -86 164 -86 6 0 28 12 50 26 89 57 191
76 294 55 54 -11 141 -63 187 -112 44 -48 94 -140 94 -174 0 -25 40 -44 113
-55 27 -3 59 -8 70 -11 12 -2 38 -7 57 -9 19 -3 44 -7 55 -10 133 -28 607 -26
795 3 74 12 144 23 155 26 181 40 364 95 495 148 52 22 103 42 113 45 46 14
320 161 325 174 2 5 8 9 14 9 13 0 213 135 238 160 10 10 31 27 46 37 63 41
294 258 294 277 0 6 -121 132 -270 280 l-269 269 -88 -86 c-48 -47 -113 -105
-143 -129 -74 -60 -168 -128 -175 -128 -9 0 -89 -54 -97 -65 -4 -5 -8 -7 -8
-3 0 4 -27 -9 -61 -28 -33 -20 -66 -37 -72 -39 -7 -1 -39 -15 -72 -30 -32 -16
-65 -28 -72 -28 -7 0 -13 -4 -13 -9 0 -4 -6 -8 -13 -8 -7 0 -21 -24 -30 -54
-23 -72 -95 -146 -168 -173 -99 -37 -212 -11 -287 67 -37 37 -40 38 -98 35
-80 -6 -227 -6 -294 0 -93 7 -164 14 -190 20 -14 3 -38 7 -55 9 -96 13 -373
98 -454 140 -17 9 -31 14 -31 11 0 -4 -12 2 -27 12 -16 10 -50 29 -78 43 -27
14 -51 28 -53 33 -2 4 -9 7 -14 7 -13 0 -112 61 -116 72 -2 5 -8 8 -14 8 -8 0
-63 38 -94 65 -7 6 -24 19 -40 30 -40 29 -128 109 -209 193 -39 39 -74 72 -76
72 -3 0 -15 -10 -26 -22z"/>
<path d="M579 3493 c-9 -10 -45 -46 -80 -80 -35 -33 -71 -69 -80 -80 -9 -10
-27 -27 -40 -39 -13 -12 -31 -30 -40 -40 -10 -10 -75 -77 -147 -148 -152 -151
-175 -189 -179 -292 -2 -75 9 -120 41 -169 11 -17 152 -163 315 -326 238 -238
314 -307 386 -354 109 -71 333 -198 352 -201 8 -2 23 -10 33 -19 10 -9 24 -17
32 -19 7 -1 42 -16 78 -33 124 -61 400 -166 467 -179 12 -2 35 -9 50 -15 16
-6 53 -18 83 -25 53 -14 83 -22 105 -28 29 -8 63 -16 90 -21 254 -47 279 -51
365 -61 30 -3 71 -8 90 -10 19 -2 78 -7 130 -10 52 -3 107 -7 123 -8 32 -4 33
-3 41 49 12 72 72 179 138 244 110 107 218 150 369 146 105 -3 170 -22 254
-77 77 -51 151 -134 184 -209 26 -58 27 -59 64 -47 18 5 41 11 52 13 11 2 47
11 80 20 33 10 68 19 77 20 9 2 26 9 37 15 12 6 21 7 21 3 0 -4 5 -2 12 5 7 7
20 12 30 12 16 0 104 31 183 65 17 7 41 16 55 20 14 4 41 16 60 26 19 11 40
19 47 19 16 0 55 21 65 35 4 6 8 7 8 3 0 -4 37 11 83 34 45 22 84 41 87 41 3
0 22 11 42 23 21 13 42 24 48 24 5 0 10 4 10 10 0 5 3 9 8 8 25 -6 118 78 455
414 411 410 415 416 425 534 5 71 -15 137 -59 194 -40 52 -481 490 -493 490
-6 0 -27 -17 -47 -38 -109 -113 -339 -313 -339 -295 0 4 -5 0 -11 -9 -9 -17
-175 -129 -294 -200 -118 -70 -282 -150 -415 -203 -127 -49 -172 -64 -345
-114 -143 -41 -392 -82 -580 -96 -94 -7 -395 -8 -445 -1 -19 3 -66 8 -104 11
-79 8 -69 6 -231 35 -65 11 -121 23 -124 25 -5 6 -41 -35 -41 -46 0 -17 -104
-110 -148 -133 -116 -59 -267 -52 -365 16 -130 90 -189 208 -181 361 l4 72
-58 30 c-114 59 -402 250 -402 267 0 4 -5 8 -11 8 -7 0 -22 11 -35 25 -13 14
-27 25 -33 25 -5 0 -11 4 -13 8 -2 4 -33 33 -70 64 -36 31 -64 59 -60 62 3 3
1 6 -5 6 -6 0 -47 36 -91 80 -43 44 -83 80 -88 80 -5 0 -17 -8 -25 -17z"/>
<path d="M1206 1430 c50 -49 89 -92 86 -95 -3 -3 0 -5 6 -5 6 0 17 -6 24 -14
59 -65 203 -206 209 -206 4 0 11 -9 14 -21 4 -11 8 -19 11 -17 2 2 234 -226
516 -508 498 -496 549 -542 613 -550 85 -11 149 -3 208 28 52 26 1454 1424
1417 1413 -14 -4 -37 -14 -52 -21 -15 -8 -30 -14 -33 -14 -6 -1 -31 -9 -78
-26 -20 -8 -39 -14 -42 -14 -5 -1 -6 -1 -70 -21 -22 -7 -44 -14 -50 -15 -5 -1
-30 -8 -55 -16 -25 -9 -89 -26 -142 -39 l-97 -23 -11 -51 c-12 -60 -60 -164
-83 -184 -10 -7 -17 -19 -17 -27 0 -7 -9 -16 -20 -19 -11 -4 -18 -11 -15 -16
4 -5 3 -9 -2 -9 -4 0 -25 -16 -47 -35 -21 -19 -44 -35 -51 -35 -7 0 -18 -6
-24 -14 -11 -13 -86 -40 -146 -51 -155 -31 -338 29 -442 145 -65 72 -73 83
-99 141 l-28 59 -60 1 c-34 0 -79 2 -101 4 -80 5 -207 17 -227 20 -12 3 -48 7
-81 10 -33 3 -63 7 -66 9 -3 2 -28 7 -56 10 -27 4 -57 9 -66 12 -10 2 -30 7
-45 9 -16 2 -40 7 -54 10 -14 3 -36 7 -50 9 -14 3 -32 7 -40 10 -8 3 -26 7
-40 10 -14 2 -67 16 -119 31 -51 15 -98 28 -105 30 -6 1 -24 7 -39 13 -16 7
-34 12 -41 12 -7 0 -16 3 -20 7 -3 4 -15 8 -25 10 -10 1 -31 8 -47 14 -16 7
-31 13 -34 13 -10 2 -106 38 -135 51 -16 7 -55 23 -85 35 l-55 21 91 -91z"/>
</g>
</svg>
